<mxfile host="app.diagrams.net" agent="Mozilla/5.0 (Windows NT 10.0; Win64; x64) AppleWebKit/537.36 (KHTML, like Gecko) Chrome/134.0.0.0 Safari/537.36" version="26.1.1">
  <diagram name="Страница — 1" id="PAI2GlvYF38sUl3b4HfJ">
    <mxGraphModel dx="1544" dy="2223" grid="0" gridSize="10" guides="1" tooltips="1" connect="1" arrows="1" fold="1" page="0" pageScale="1" pageWidth="827" pageHeight="1169" math="0" shadow="0">
      <root>
        <mxCell id="0" />
        <mxCell id="1" parent="0" />
        <mxCell id="HFBsi6nfILItUUen_1vQ-6" value="" style="html=1;points=[[0,0,0,0,5],[0,1,0,0,-5],[1,0,0,0,5],[1,1,0,0,-5]];perimeter=orthogonalPerimeter;outlineConnect=0;targetShapes=umlLifeline;portConstraint=eastwest;newEdgeStyle={&quot;curved&quot;:0,&quot;rounded&quot;:0};" vertex="1" parent="1">
          <mxGeometry x="-607" y="-883" width="10" height="463" as="geometry" />
        </mxCell>
        <mxCell id="HFBsi6nfILItUUen_1vQ-7" value="" style="html=1;points=[[0,0,0,0,5],[0,1,0,0,-5],[1,0,0,0,5],[1,1,0,0,-5]];perimeter=orthogonalPerimeter;outlineConnect=0;targetShapes=umlLifeline;portConstraint=eastwest;newEdgeStyle={&quot;curved&quot;:0,&quot;rounded&quot;:0};" vertex="1" parent="1">
          <mxGeometry x="-490" y="-885" width="10" height="463" as="geometry" />
        </mxCell>
        <mxCell id="HFBsi6nfILItUUen_1vQ-8" value="" style="html=1;points=[[0,0,0,0,5],[0,1,0,0,-5],[1,0,0,0,5],[1,1,0,0,-5]];perimeter=orthogonalPerimeter;outlineConnect=0;targetShapes=umlLifeline;portConstraint=eastwest;newEdgeStyle={&quot;curved&quot;:0,&quot;rounded&quot;:0};" vertex="1" parent="1">
          <mxGeometry x="-359" y="-883" width="10" height="463" as="geometry" />
        </mxCell>
        <mxCell id="HFBsi6nfILItUUen_1vQ-9" value="" style="html=1;points=[[0,0,0,0,5],[0,1,0,0,-5],[1,0,0,0,5],[1,1,0,0,-5]];perimeter=orthogonalPerimeter;outlineConnect=0;targetShapes=umlLifeline;portConstraint=eastwest;newEdgeStyle={&quot;curved&quot;:0,&quot;rounded&quot;:0};" vertex="1" parent="1">
          <mxGeometry x="-201.5" y="-841" width="10" height="90" as="geometry" />
        </mxCell>
        <mxCell id="HFBsi6nfILItUUen_1vQ-10" value="Гость" style="shape=umlLifeline;perimeter=lifelinePerimeter;whiteSpace=wrap;html=1;container=1;dropTarget=0;collapsible=0;recursiveResize=0;outlineConnect=0;portConstraint=eastwest;newEdgeStyle={&quot;curved&quot;:0,&quot;rounded&quot;:0};participant=umlActor;size=42;" vertex="1" parent="1">
          <mxGeometry x="-612" y="-989" width="20" height="104" as="geometry" />
        </mxCell>
        <mxCell id="HFBsi6nfILItUUen_1vQ-11" value="Страница с сертификатами" style="shape=umlLifeline;perimeter=lifelinePerimeter;whiteSpace=wrap;html=1;container=1;dropTarget=0;collapsible=0;recursiveResize=0;outlineConnect=0;portConstraint=eastwest;newEdgeStyle={&quot;curved&quot;:0,&quot;rounded&quot;:0};participant=umlBoundary;size=82;" vertex="1" parent="1">
          <mxGeometry x="-540" y="-992" width="107" height="104" as="geometry" />
        </mxCell>
        <mxCell id="HFBsi6nfILItUUen_1vQ-12" value="Система" style="shape=umlLifeline;perimeter=lifelinePerimeter;whiteSpace=wrap;html=1;container=1;dropTarget=0;collapsible=0;recursiveResize=0;outlineConnect=0;portConstraint=eastwest;newEdgeStyle={&quot;curved&quot;:0,&quot;rounded&quot;:0};participant=umlControl;size=91;" vertex="1" parent="1">
          <mxGeometry x="-396.75" y="-1003" width="85.5" height="117" as="geometry" />
        </mxCell>
        <mxCell id="HFBsi6nfILItUUen_1vQ-13" value="БД с пользователями" style="shape=umlLifeline;perimeter=lifelinePerimeter;whiteSpace=wrap;html=1;container=1;dropTarget=0;collapsible=0;recursiveResize=0;outlineConnect=0;portConstraint=eastwest;newEdgeStyle={&quot;curved&quot;:0,&quot;rounded&quot;:0};participant=umlEntity;size=77;" vertex="1" parent="1">
          <mxGeometry x="-237" y="-992" width="81" height="573" as="geometry" />
        </mxCell>
        <mxCell id="HFBsi6nfILItUUen_1vQ-14" value="БД с подар.&lt;div&gt;картами&lt;/div&gt;" style="shape=umlLifeline;perimeter=lifelinePerimeter;whiteSpace=wrap;html=1;container=1;dropTarget=0;collapsible=0;recursiveResize=0;outlineConnect=0;portConstraint=eastwest;newEdgeStyle={&quot;curved&quot;:0,&quot;rounded&quot;:0};participant=umlEntity;size=77;" vertex="1" parent="1">
          <mxGeometry x="-120" y="-997.5" width="81" height="576.5" as="geometry" />
        </mxCell>
        <mxCell id="HFBsi6nfILItUUen_1vQ-16" value="" style="html=1;points=[[0,0,0,0,5],[0,1,0,0,-5],[1,0,0,0,5],[1,1,0,0,-5]];perimeter=orthogonalPerimeter;outlineConnect=0;targetShapes=umlLifeline;portConstraint=eastwest;newEdgeStyle={&quot;curved&quot;:0,&quot;rounded&quot;:0};" vertex="1" parent="1">
          <mxGeometry x="-84.5" y="-644" width="10" height="99" as="geometry" />
        </mxCell>
        <mxCell id="HFBsi6nfILItUUen_1vQ-21" value="Запрос()" style="html=1;verticalAlign=bottom;endArrow=block;curved=0;rounded=0;fontSize=12;startSize=8;endSize=8;" edge="1" parent="1">
          <mxGeometry x="-0.1111" y="20" width="80" relative="1" as="geometry">
            <mxPoint x="-597" y="-858" as="sourcePoint" />
            <mxPoint x="-489" y="-858" as="targetPoint" />
            <Array as="points" />
            <mxPoint as="offset" />
          </mxGeometry>
        </mxCell>
        <mxCell id="HFBsi6nfILItUUen_1vQ-22" value="оплатитьКарту()" style="html=1;verticalAlign=bottom;endArrow=block;curved=0;rounded=0;fontSize=12;startSize=8;endSize=8;" edge="1" parent="1">
          <mxGeometry x="-0.1111" y="20" width="80" relative="1" as="geometry">
            <mxPoint x="-477.9999999999999" y="-843" as="sourcePoint" />
            <mxPoint x="-359" y="-843" as="targetPoint" />
            <Array as="points" />
            <mxPoint as="offset" />
          </mxGeometry>
        </mxCell>
        <mxCell id="HFBsi6nfILItUUen_1vQ-23" value="" style="html=1;verticalAlign=bottom;endArrow=block;curved=0;rounded=0;fontSize=12;startSize=8;endSize=8;" edge="1" parent="1" target="HFBsi6nfILItUUen_1vQ-9">
          <mxGeometry x="-0.1111" y="20" width="80" relative="1" as="geometry">
            <mxPoint x="-346" y="-826.0000000000002" as="sourcePoint" />
            <mxPoint x="-212" y="-826.0000000000002" as="targetPoint" />
            <Array as="points" />
            <mxPoint as="offset" />
          </mxGeometry>
        </mxCell>
        <mxCell id="HFBsi6nfILItUUen_1vQ-24" value="добавитьКарту()" style="text;html=1;align=center;verticalAlign=middle;resizable=0;points=[];autosize=1;strokeColor=none;fillColor=none;fontSize=16;" vertex="1" parent="1">
          <mxGeometry x="-356.5" y="-860.5" width="140" height="31" as="geometry" />
        </mxCell>
        <mxCell id="HFBsi6nfILItUUen_1vQ-25" value="карта" style="html=1;verticalAlign=bottom;endArrow=open;dashed=1;endSize=8;curved=0;rounded=0;fontSize=12;" edge="1" parent="1">
          <mxGeometry relative="1" as="geometry">
            <mxPoint x="-201.5" y="-774" as="sourcePoint" />
            <mxPoint x="-349" y="-774" as="targetPoint" />
          </mxGeometry>
        </mxCell>
        <mxCell id="HFBsi6nfILItUUen_1vQ-27" value="" style="html=1;points=[[0,0,0,0,5],[0,1,0,0,-5],[1,0,0,0,5],[1,1,0,0,-5]];perimeter=orthogonalPerimeter;outlineConnect=0;targetShapes=umlLifeline;portConstraint=eastwest;newEdgeStyle={&quot;curved&quot;:0,&quot;rounded&quot;:0};" vertex="1" parent="1">
          <mxGeometry x="-351" y="-708" width="10" height="40" as="geometry" />
        </mxCell>
        <mxCell id="HFBsi6nfILItUUen_1vQ-28" value="проверитьДанные()" style="html=1;align=left;spacingLeft=2;endArrow=block;rounded=0;edgeStyle=orthogonalEdgeStyle;curved=0;rounded=0;fontSize=12;startSize=8;endSize=8;" edge="1" target="HFBsi6nfILItUUen_1vQ-27" parent="1" source="HFBsi6nfILItUUen_1vQ-8">
          <mxGeometry relative="1" as="geometry">
            <mxPoint x="-346" y="-728" as="sourcePoint" />
            <Array as="points">
              <mxPoint x="-316" y="-734" />
              <mxPoint x="-316" y="-688" />
            </Array>
          </mxGeometry>
        </mxCell>
        <mxCell id="HFBsi6nfILItUUen_1vQ-29" value="alt" style="shape=umlFrame;whiteSpace=wrap;html=1;pointerEvents=0;" vertex="1" parent="1">
          <mxGeometry x="-570" y="-660" width="547" height="230" as="geometry" />
        </mxCell>
        <mxCell id="HFBsi6nfILItUUen_1vQ-30" value="отправитьIDКарты()" style="html=1;verticalAlign=bottom;endArrow=block;curved=0;rounded=0;fontSize=12;startSize=8;endSize=8;" edge="1" parent="1">
          <mxGeometry x="-0.1111" y="20" width="80" relative="1" as="geometry">
            <mxPoint x="-349" y="-613.0000000000002" as="sourcePoint" />
            <mxPoint x="-84.5" y="-613.0000000000002" as="targetPoint" />
            <Array as="points" />
            <mxPoint as="offset" />
          </mxGeometry>
        </mxCell>
        <mxCell id="HFBsi6nfILItUUen_1vQ-31" value="статусОтправки = &quot;True&quot;" style="html=1;verticalAlign=bottom;endArrow=open;dashed=1;endSize=8;curved=0;rounded=0;fontSize=12;" edge="1" parent="1" source="HFBsi6nfILItUUen_1vQ-16" target="HFBsi6nfILItUUen_1vQ-8">
          <mxGeometry relative="1" as="geometry">
            <mxPoint x="-132.5" y="-563" as="sourcePoint" />
            <mxPoint x="-280" y="-563" as="targetPoint" />
            <Array as="points">
              <mxPoint x="-114" y="-562" />
            </Array>
          </mxGeometry>
        </mxCell>
        <mxCell id="HFBsi6nfILItUUen_1vQ-32" value="" style="endArrow=none;dashed=1;html=1;rounded=0;fontSize=12;startSize=8;endSize=8;curved=1;exitX=0.005;exitY=0.521;exitDx=0;exitDy=0;exitPerimeter=0;entryX=0.996;entryY=0.512;entryDx=0;entryDy=0;entryPerimeter=0;" edge="1" parent="1" source="HFBsi6nfILItUUen_1vQ-29" target="HFBsi6nfILItUUen_1vQ-29">
          <mxGeometry width="50" height="50" relative="1" as="geometry">
            <mxPoint x="-312" y="-628" as="sourcePoint" />
            <mxPoint x="-262" y="-678" as="targetPoint" />
          </mxGeometry>
        </mxCell>
        <mxCell id="HFBsi6nfILItUUen_1vQ-33" value="Оплата прошла" style="text;html=1;align=center;verticalAlign=middle;resizable=0;points=[];autosize=1;strokeColor=none;fillColor=none;fontSize=16;" vertex="1" parent="1">
          <mxGeometry x="-515" y="-658" width="135" height="31" as="geometry" />
        </mxCell>
        <mxCell id="HFBsi6nfILItUUen_1vQ-34" value="Оплата не прошла" style="text;html=1;align=center;verticalAlign=middle;resizable=0;points=[];autosize=1;strokeColor=none;fillColor=none;fontSize=16;" vertex="1" parent="1">
          <mxGeometry x="-529" y="-540" width="157" height="31" as="geometry" />
        </mxCell>
        <mxCell id="HFBsi6nfILItUUen_1vQ-36" value="статусОтправки = &quot;True&quot;" style="html=1;verticalAlign=bottom;endArrow=open;dashed=1;endSize=8;curved=0;rounded=0;fontSize=12;" edge="1" parent="1">
          <mxGeometry relative="1" as="geometry">
            <mxPoint x="-359" y="-554" as="sourcePoint" />
            <mxPoint x="-477.9999999999999" y="-554.0000000000002" as="targetPoint" />
          </mxGeometry>
        </mxCell>
        <mxCell id="HFBsi6nfILItUUen_1vQ-37" value="статусОтправки = &quot;False&quot;" style="html=1;verticalAlign=bottom;endArrow=open;dashed=1;endSize=8;curved=0;rounded=0;fontSize=12;" edge="1" parent="1">
          <mxGeometry relative="1" as="geometry">
            <mxPoint x="-361" y="-443" as="sourcePoint" />
            <mxPoint x="-479.9999999999999" y="-443.0000000000002" as="targetPoint" />
          </mxGeometry>
        </mxCell>
      </root>
    </mxGraphModel>
  </diagram>
</mxfile>
